<svg id="svg" version="1.1" xmlns="http://www.w3.org/2000/svg" xmlns:xlink="http://www.w3.org/1999/xlink" width="400" height="89.38547486033521" viewBox="0, 0, 400,89.38547486033521"><g id="svgg"><path id="path0" d="M37.266 25.860 C 37.348 25.992,37.272 26.023,37.026 25.958 C 36.828 25.907,36.708 25.932,36.760 26.016 C 36.811 26.099,36.619 26.167,36.333 26.167 C 36.029 26.167,35.856 26.236,35.917 26.333 C 35.973 26.425,35.940 26.500,35.843 26.500 C 35.746 26.500,35.667 26.421,35.667 26.323 C 35.667 26.226,35.587 26.197,35.489 26.257 C 35.391 26.318,35.354 26.480,35.407 26.619 C 35.473 26.789,35.427 26.841,35.266 26.779 C 35.135 26.729,34.986 26.797,34.935 26.930 C 34.820 27.229,34.907 65.887,35.024 66.583 C 35.070 66.858,35.027 67.137,34.929 67.203 C 34.829 67.270,34.989 67.372,35.289 67.432 C 35.585 67.492,35.782 67.614,35.726 67.705 C 35.664 67.807,35.769 67.823,36.004 67.749 C 36.301 67.655,36.363 67.683,36.288 67.877 C 36.210 68.082,36.294 68.103,36.763 67.997 C 37.155 67.909,37.334 67.928,37.336 68.059 C 37.338 68.181,37.383 68.189,37.461 68.083 C 37.618 67.869,38.000 67.791,38.000 67.973 C 38.000 68.149,39.345 68.129,39.625 67.948 C 39.750 67.867,39.833 67.893,39.833 68.011 C 39.833 68.157,39.897 68.155,40.083 68.000 C 40.221 67.886,40.333 67.864,40.333 67.952 C 40.333 68.135,40.825 68.128,41.128 67.941 C 41.241 67.871,41.333 67.881,41.333 67.962 C 41.333 68.044,41.446 68.111,41.583 68.111 C 41.721 68.111,41.833 68.013,41.833 67.893 C 41.833 67.726,41.937 67.714,42.275 67.843 C 42.680 67.997,42.697 67.987,42.483 67.723 C 42.330 67.535,42.322 67.479,42.458 67.561 C 42.581 67.635,42.667 67.600,42.667 67.477 C 42.667 67.320,42.715 67.315,42.856 67.456 C 43.101 67.701,43.453 67.376,43.446 66.911 C 43.443 66.731,43.454 63.374,43.470 59.452 L 43.500 52.320 47.000 52.369 C 49.222 52.399,50.526 52.356,50.571 52.250 C 50.611 52.154,50.708 52.179,50.800 52.309 C 50.912 52.470,50.992 52.481,51.074 52.348 C 51.138 52.245,51.278 52.217,51.387 52.284 C 51.702 52.482,52.011 52.487,51.891 52.292 C 51.820 52.177,51.912 52.148,52.151 52.211 C 52.394 52.274,52.553 52.222,52.617 52.056 C 52.695 51.852,52.740 51.847,52.860 52.028 C 52.976 52.204,53.061 52.182,53.274 51.917 C 53.538 51.588,53.540 51.589,53.451 51.968 C 53.374 52.292,53.398 52.320,53.606 52.148 C 53.803 51.984,53.842 51.989,53.801 52.170 C 53.769 52.311,53.905 52.400,54.167 52.406 C 54.503 52.415,54.599 52.320,54.667 51.920 C 54.754 51.400,55.583 51.108,55.698 51.557 C 55.733 51.695,55.843 51.665,56.042 51.463 C 56.272 51.229,56.283 51.167,56.093 51.167 C 55.535 51.167,55.885 50.254,56.464 50.198 C 56.829 50.162,56.968 50.080,56.888 49.948 C 56.801 49.803,56.833 49.797,57.010 49.925 C 57.142 50.021,57.663 50.094,58.167 50.086 L 59.083 50.072 59.092 49.161 C 59.097 48.660,59.040 48.124,58.967 47.970 C 58.870 47.765,58.925 47.660,59.169 47.583 C 59.354 47.524,59.470 47.419,59.426 47.349 C 59.383 47.279,59.454 47.222,59.583 47.222 C 59.713 47.222,59.785 47.276,59.745 47.342 C 59.704 47.408,59.817 47.500,59.996 47.547 C 60.175 47.594,60.316 47.584,60.308 47.525 C 60.261 47.164,60.358 46.833,60.511 46.833 C 60.617 46.833,60.643 46.977,60.577 47.188 C 60.497 47.438,60.522 47.506,60.662 47.419 C 60.781 47.346,60.818 47.129,60.755 46.877 C 60.677 46.566,60.708 46.480,60.874 46.544 C 61.190 46.665,61.154 45.868,60.833 45.654 C 60.611 45.505,60.611 45.489,60.833 45.513 C 61.318 45.565,61.518 45.498,61.410 45.322 C 61.349 45.224,61.195 45.184,61.066 45.233 C 60.784 45.342,60.780 45.299,61.027 44.758 C 61.133 44.524,61.302 44.332,61.402 44.331 C 61.502 44.329,61.476 44.260,61.344 44.177 C 61.166 44.064,61.152 43.969,61.289 43.804 C 61.390 43.682,61.455 43.334,61.434 43.032 C 61.413 42.729,61.442 42.453,61.497 42.419 C 61.552 42.384,61.615 42.591,61.637 42.878 C 61.683 43.484,61.833 43.726,61.833 43.194 C 61.833 42.996,61.902 42.833,61.986 42.833 C 62.071 42.833,62.258 42.788,62.403 42.732 C 62.603 42.655,62.672 42.746,62.689 43.107 C 62.707 43.484,62.727 43.507,62.783 43.219 C 62.823 43.012,63.048 42.783,63.302 42.690 L 63.750 42.526 63.272 42.513 C 62.838 42.501,62.804 42.458,62.900 42.042 C 63.068 41.316,63.085 41.262,63.225 41.038 C 63.308 40.906,63.282 40.843,63.158 40.871 C 63.048 40.896,62.920 40.812,62.874 40.685 C 62.816 40.526,62.862 40.495,63.020 40.587 C 63.147 40.660,63.194 40.659,63.126 40.584 C 63.058 40.509,63.088 40.345,63.192 40.220 C 63.343 40.038,63.320 40.016,63.080 40.108 C 62.859 40.193,62.814 40.166,62.913 40.007 C 63.003 39.861,62.971 39.816,62.815 39.868 C 62.688 39.911,62.591 40.096,62.601 40.279 C 62.611 40.462,62.525 40.611,62.411 40.611 C 62.163 40.611,62.189 40.292,62.464 39.960 C 62.574 39.828,62.624 39.680,62.575 39.631 C 62.527 39.582,62.621 39.543,62.785 39.544 C 63.541 39.548,63.751 39.495,63.531 39.356 C 63.410 39.280,63.110 39.244,62.864 39.276 C 62.618 39.308,62.510 39.291,62.625 39.237 C 62.762 39.172,62.833 38.747,62.833 37.996 C 62.833 37.004,62.883 36.815,63.208 36.572 C 63.497 36.357,63.512 36.317,63.273 36.398 C 63.039 36.478,62.987 36.440,63.063 36.243 C 63.121 36.092,63.093 36.026,62.997 36.085 C 62.682 36.280,62.197 36.004,62.282 35.680 C 62.326 35.510,62.282 35.321,62.183 35.260 C 62.072 35.192,62.042 35.248,62.103 35.408 C 62.245 35.779,61.894 35.727,61.483 35.317 C 61.255 35.088,61.190 34.910,61.296 34.804 C 61.498 34.602,61.352 32.623,61.125 32.478 C 61.032 32.418,61.095 32.294,61.272 32.191 C 61.566 32.020,61.567 32.010,61.282 32.005 C 61.116 32.002,61.022 31.933,61.073 31.851 C 61.123 31.769,61.034 31.648,60.874 31.583 C 60.608 31.474,60.611 31.453,60.917 31.327 C 61.213 31.205,61.217 31.189,60.948 31.178 C 60.783 31.172,60.684 31.107,60.729 31.035 C 60.774 30.962,60.650 30.890,60.453 30.876 C 60.257 30.861,59.956 30.677,59.784 30.466 C 59.612 30.256,59.517 30.173,59.572 30.282 C 59.636 30.406,59.548 30.470,59.337 30.454 C 58.977 30.427,58.967 30.409,58.942 29.708 C 58.933 29.456,58.811 29.156,58.671 29.041 C 58.452 28.861,58.463 28.846,58.750 28.929 C 59.053 29.016,59.056 29.008,58.790 28.837 C 58.629 28.733,58.423 28.695,58.332 28.751 C 58.118 28.883,58.117 28.616,58.331 28.402 C 58.439 28.294,58.386 28.238,58.177 28.238 C 58.001 28.238,57.894 28.297,57.939 28.369 C 57.983 28.441,57.945 28.500,57.853 28.500 C 57.761 28.500,57.639 28.424,57.582 28.331 C 57.524 28.237,57.413 28.201,57.335 28.249 C 57.257 28.297,57.084 28.227,56.950 28.093 C 56.816 27.959,56.642 27.902,56.563 27.966 C 56.485 28.031,56.562 27.915,56.736 27.708 C 57.020 27.371,56.988 27.256,56.625 27.314 C 56.556 27.324,56.500 27.216,56.500 27.073 C 56.500 26.913,56.579 26.859,56.708 26.934 C 56.829 27.003,56.858 26.990,56.778 26.902 C 56.701 26.818,56.570 26.741,56.486 26.729 C 56.114 26.678,56.097 26.652,56.333 26.485 C 56.529 26.347,56.532 26.322,56.348 26.371 C 56.218 26.406,56.094 26.562,56.071 26.718 C 56.045 26.893,56.104 26.959,56.223 26.891 C 56.330 26.830,56.360 26.842,56.291 26.918 C 56.222 26.994,56.290 27.194,56.442 27.361 C 56.700 27.647,56.698 27.667,56.415 27.667 C 56.248 27.667,56.160 27.617,56.221 27.557 C 56.350 27.427,56.011 26.974,55.856 27.069 C 55.798 27.105,55.750 26.954,55.750 26.734 C 55.750 26.514,55.819 26.333,55.903 26.333 C 55.987 26.333,56.007 26.285,55.948 26.226 C 55.890 26.167,55.720 26.220,55.571 26.344 C 55.264 26.599,54.786 26.711,54.919 26.497 C 54.966 26.420,54.928 26.309,54.833 26.250 C 54.739 26.191,54.706 26.055,54.760 25.947 C 54.814 25.839,54.754 25.876,54.628 26.030 C 54.384 26.326,54.112 26.247,53.955 25.833 C 53.895 25.677,53.854 25.739,53.844 26.000 C 53.832 26.330,53.795 26.364,53.670 26.167 C 53.485 25.873,52.836 25.794,52.828 26.064 C 52.825 26.166,52.748 26.121,52.657 25.964 C 52.529 25.745,52.399 25.713,52.100 25.827 C 51.844 25.924,51.644 25.911,51.521 25.788 C 51.382 25.649,51.330 25.684,51.320 25.925 C 51.313 26.104,51.271 26.162,51.228 26.055 C 51.106 25.758,38.668 25.738,38.664 26.035 C 38.662 26.208,38.634 26.207,38.523 26.032 C 38.433 25.890,38.230 25.853,37.943 25.925 C 37.663 25.995,37.500 25.968,37.500 25.851 C 37.500 25.750,37.421 25.667,37.323 25.667 C 37.226 25.667,37.201 25.753,37.266 25.860 M49.042 32.296 C 49.354 32.378,49.452 32.833,49.157 32.833 C 49.060 32.833,49.027 32.758,49.083 32.667 C 49.140 32.575,49.149 32.500,49.103 32.500 C 48.815 32.500,48.901 32.839,49.246 33.066 C 49.600 33.297,49.643 33.299,49.560 33.082 C 49.488 32.894,49.539 32.859,49.759 32.943 C 49.977 33.027,50.019 32.999,49.918 32.836 C 49.828 32.690,49.846 32.655,49.972 32.733 C 50.109 32.818,50.086 32.968,49.890 33.267 C 49.699 33.558,49.564 33.631,49.442 33.509 C 49.346 33.412,49.201 33.333,49.121 33.333 C 48.972 33.333,49.131 33.502,49.826 34.083 C 50.045 34.267,50.169 34.322,50.101 34.207 C 50.028 34.082,50.090 33.955,50.253 33.892 C 50.475 33.807,50.485 33.757,50.306 33.631 C 50.129 33.507,50.135 33.489,50.333 33.546 C 50.471 33.586,50.564 33.729,50.541 33.865 C 50.510 34.043,50.667 34.119,51.102 34.135 C 51.434 34.148,51.824 34.254,51.968 34.371 C 52.171 34.535,52.202 34.536,52.105 34.375 C 52.037 34.260,52.052 34.167,52.139 34.167 C 52.226 34.167,52.343 34.284,52.398 34.427 C 52.453 34.571,52.572 34.642,52.664 34.585 C 52.761 34.525,52.787 34.594,52.726 34.753 C 52.669 34.901,52.723 35.210,52.845 35.439 C 53.026 35.777,53.028 35.880,52.853 35.988 C 52.652 36.112,53.053 36.421,53.347 36.369 C 53.401 36.360,53.444 36.457,53.444 36.585 C 53.444 36.714,53.363 36.773,53.264 36.718 C 53.165 36.663,53.177 36.718,53.291 36.842 C 53.464 37.027,53.541 37.010,53.750 36.741 C 53.994 36.425,53.998 36.425,53.888 36.737 C 53.796 37.001,53.833 37.037,54.096 36.943 C 54.338 36.857,54.318 36.906,54.011 37.146 C 53.633 37.443,53.627 37.469,53.928 37.536 C 54.105 37.575,53.923 37.616,53.524 37.627 C 52.802 37.646,52.293 37.833,52.962 37.833 C 53.156 37.833,53.368 37.921,53.434 38.028 C 53.513 38.156,53.467 38.190,53.301 38.126 C 53.116 38.055,53.057 38.127,53.086 38.389 C 53.146 38.956,53.151 38.964,53.440 38.940 C 53.591 38.927,53.751 39.022,53.796 39.152 C 53.851 39.306,53.795 39.354,53.633 39.292 C 53.497 39.240,53.281 39.264,53.152 39.346 C 52.981 39.454,53.047 39.496,53.388 39.497 L 53.859 39.500 53.471 39.988 C 53.258 40.256,52.971 40.510,52.833 40.552 C 52.696 40.594,52.771 40.639,53.000 40.653 C 53.403 40.676,53.406 40.685,53.093 40.922 C 52.805 41.140,52.801 41.167,53.057 41.167 C 53.368 41.167,53.166 41.773,52.767 42.039 C 52.644 42.121,52.659 42.162,52.812 42.164 C 52.996 42.166,53.001 42.215,52.833 42.417 C 52.668 42.616,52.668 42.667,52.833 42.667 C 52.999 42.667,52.999 42.717,52.833 42.917 C 52.719 43.054,52.698 43.167,52.785 43.167 C 53.007 43.167,52.986 43.610,52.764 43.618 C 52.414 43.630,52.082 43.752,51.946 43.917 C 51.856 44.025,51.779 44.012,51.725 43.880 C 51.660 43.720,51.595 43.720,51.422 43.880 C 51.301 43.992,51.246 44.158,51.299 44.250 C 51.353 44.342,51.256 44.304,51.084 44.167 C 50.802 43.941,50.781 43.944,50.874 44.192 C 51.022 44.588,50.872 44.663,50.316 44.469 C 49.958 44.344,49.760 44.353,49.580 44.503 C 49.398 44.653,49.275 44.659,49.111 44.523 C 48.943 44.384,48.889 44.398,48.889 44.579 C 48.889 44.711,48.951 44.780,49.028 44.733 C 49.104 44.686,49.167 44.764,49.167 44.907 C 49.167 45.050,49.100 45.167,49.019 45.167 C 48.938 45.167,48.833 45.317,48.785 45.500 C 48.737 45.684,48.766 45.792,48.849 45.740 C 48.932 45.689,49.000 45.716,49.000 45.800 C 49.000 45.886,47.790 45.967,46.250 45.985 L 43.500 46.016 43.500 39.080 L 43.500 32.144 46.125 32.182 C 47.569 32.203,48.881 32.254,49.042 32.296 M62.921 36.634 C 62.746 36.810,62.029 36.848,61.929 36.686 C 61.876 36.601,61.975 36.568,62.148 36.613 C 62.321 36.659,62.514 36.613,62.576 36.512 C 62.639 36.411,62.765 36.374,62.856 36.431 C 62.947 36.487,62.977 36.579,62.921 36.634 M53.886 38.183 C 53.936 38.376,53.933 38.489,53.879 38.435 C 53.825 38.380,53.678 38.421,53.553 38.525 C 53.428 38.629,53.271 38.660,53.206 38.595 C 53.140 38.529,53.218 38.401,53.380 38.311 C 53.541 38.220,53.630 38.076,53.577 37.990 C 53.524 37.904,53.551 37.833,53.637 37.833 C 53.724 37.833,53.836 37.991,53.886 38.183 M62.750 40.961 C 63.109 41.224,62.990 41.476,62.545 41.395 C 62.126 41.319,62.114 41.333,62.360 41.615 C 62.712 42.019,62.685 42.446,62.309 42.418 C 61.871 42.386,61.757 42.210,61.991 41.928 C 62.103 41.792,62.144 41.598,62.081 41.496 C 62.014 41.388,62.119 41.271,62.331 41.216 C 62.605 41.144,62.640 41.086,62.472 40.979 C 62.350 40.902,62.325 40.838,62.417 40.838 C 62.508 40.838,62.658 40.894,62.750 40.961 " stroke="none" fill="#fcfcfc" fill-rule="evenodd"></path><path id="path1" d="" stroke="none" fill="#100fcfc" fill-rule="evenodd"></path><path id="path2" d="" stroke="none" fill="#100fcfc" fill-rule="evenodd"></path><path id="path3" d="" stroke="none" fill="#100fcfc" fill-rule="evenodd"></path><path id="path4" d="" stroke="none" fill="#100fcfc" fill-rule="evenodd"></path></g></svg>